<?xml version="1.0" encoding="utf-8"?>
<!-- Generator: Adobe Illustrator 24.1.2, SVG Export Plug-In . SVG Version: 6.00 Build 0)  -->
<svg version="1.1" id="Layer_1" xmlns="http://www.w3.org/2000/svg" xmlns:xlink="http://www.w3.org/1999/xlink" x="0px" y="0px"
	 viewBox="0 0 146.9 212.4" style="enable-background:new 0 0 146.9 212.4;">
<style type="text/css">
	.st0{fill:url(#SVGID_1_);}
	.st1{enable-background:new    ;}
	.st2{fill:#231F20;}
</style>
<g id="Layer_2_1_">
	<g id="OBJECTS">
		<path d="M86.9,84.9c15.7,17.4-1,50.6-30.3,58.5c34.6,12.9,73.2-4.8,86-39.4c7.5-20.3,4.8-43-7.4-60.9
			c-8.1-11.6-19.6-20.5-32.9-25.4l-0.6-0.2l0,0C100.5,17.9,42.8,36,86.9,84.9z"/>
		
			<linearGradient id="SVGID_1_" gradientUnits="userSpaceOnUse" x1="7.596199e-03" y1="148.4694" x2="88.79" y2="148.4694" gradientTransform="matrix(1 0 0 -1 0 213)">
			<stop  offset="0" style="stop-color:#A1A1A1"/>
			<stop  offset="1" style="stop-color:#6A6A6A"/>
		</linearGradient>
		<path class="st0" d="M29.3,11C-1.3,31.8-9.2,73.4,11.6,104c7.8,11.5,19,20.3,32,25.1c29.3-7.9,46-41.1,30.3-58.5
			c-44.2-49,13.5-67,14.8-67.4C84.2,1.6,54.7-6.3,29.3,11z"/>
		<g class="st1">
			<path class="st2" d="M56.1,195.1c0,1.3-0.2,2.5-0.7,3.6c-0.5,1.1-1.1,2.1-1.9,3c-0.8,0.8-1.7,1.5-2.8,2c-1.1,0.5-2.3,0.7-3.6,0.7
				s-2.5-0.2-3.6-0.7c-1.1-0.5-2.1-1.2-3-2c-0.8-0.8-1.5-1.8-2-3c-0.5-1.1-0.7-2.3-0.7-3.6c0-1.5,0.1-3,0.4-4.4
				c0.3-1.4,0.7-2.8,1.3-4.1c0.6-1.3,1.3-2.5,2.1-3.6c0.8-1.1,1.7-2,2.8-2.8h6.3c-0.7,0.4-1.3,0.9-1.9,1.4c-0.6,0.5-1.2,1.1-1.8,1.7
				s-1.1,1.2-1.6,1.9c-0.5,0.7-0.9,1.4-1.3,2.1c0.5-0.3,1-0.6,1.5-0.8s1.1-0.3,1.7-0.3c1.3,0,2.5,0.2,3.6,0.7c1.1,0.4,2,1.1,2.7,1.9
				s1.3,1.7,1.7,2.8C55.9,192.6,56.1,193.8,56.1,195.1z M51.4,195.1c0-0.6-0.1-1.2-0.3-1.8s-0.5-1-0.9-1.5c-0.4-0.4-0.8-0.8-1.3-1
				c-0.5-0.2-1.1-0.4-1.8-0.4s-1.2,0.1-1.8,0.4c-0.5,0.2-1,0.6-1.3,1c-0.4,0.4-0.6,0.9-0.8,1.5s-0.3,1.1-0.3,1.8
				c0,0.6,0.1,1.2,0.3,1.7c0.2,0.6,0.5,1,0.9,1.5c0.4,0.4,0.8,0.8,1.3,1c0.5,0.3,1.1,0.4,1.7,0.4c0.6,0,1.2-0.1,1.8-0.4
				c0.5-0.2,1-0.6,1.3-1c0.4-0.4,0.7-0.9,0.9-1.5C51.3,196.3,51.4,195.7,51.4,195.1z"/>
			<path class="st2" d="M67.7,203.7c-1.1,0-2.1-0.2-3.1-0.6c-1-0.4-1.8-1-2.5-1.7c-0.7-0.7-1.3-1.6-1.7-2.5s-0.6-2-0.6-3.1v-5.2
				h-2.2v-4.5h2.2v-7h4.5v7h6.8v4.5h-6.8v5.2c0,0.5,0.1,0.9,0.3,1.3c0.2,0.4,0.4,0.8,0.7,1.1c0.3,0.3,0.7,0.6,1.1,0.7
				s0.9,0.3,1.3,0.3h3.4v4.5H67.7z"/>
			<path class="st2" d="M80.6,199.4c0.2,0.1,0.3,0.1,0.5,0.1c0.2,0,0.3,0,0.5,0c0.4,0,0.9-0.1,1.3-0.2c0.4-0.1,0.8-0.3,1.1-0.5
				s0.7-0.5,1-0.8c0.3-0.3,0.5-0.7,0.7-1.1l3.3,3.3c-0.4,0.6-0.9,1.1-1.4,1.6c-0.5,0.5-1.1,0.9-1.8,1.2c-0.6,0.3-1.3,0.6-2,0.7
				c-0.7,0.2-1.4,0.3-2.1,0.3c-1.2,0-2.4-0.2-3.5-0.7s-2-1.1-2.9-1.9c-0.8-0.8-1.5-1.8-1.9-2.9c-0.5-1.1-0.7-2.4-0.7-3.7
				c0-1.4,0.2-2.7,0.7-3.8s1.1-2.1,1.9-2.9c0.8-0.8,1.8-1.4,2.9-1.9c1.1-0.4,2.3-0.7,3.5-0.7c0.7,0,1.4,0.1,2.1,0.3
				c0.7,0.2,1.4,0.4,2,0.8c0.6,0.3,1.2,0.7,1.8,1.2c0.5,0.5,1,1,1.4,1.6L80.6,199.4z M82.9,190.2c-0.2-0.1-0.4-0.1-0.6-0.1
				c-0.2,0-0.4,0-0.6,0c-0.6,0-1.2,0.1-1.7,0.3c-0.5,0.2-1,0.5-1.4,1c-0.4,0.4-0.7,0.9-0.9,1.5c-0.2,0.6-0.3,1.2-0.3,2
				c0,0.2,0,0.3,0,0.6c0,0.2,0,0.4,0.1,0.6c0,0.2,0.1,0.4,0.1,0.6s0.1,0.4,0.2,0.5L82.9,190.2z"/>
			<path class="st2" d="M109,188.9c0,1.5-0.2,3-0.5,4.4c-0.3,1.4-0.7,2.8-1.3,4.1c-0.6,1.3-1.3,2.5-2.1,3.5c-0.8,1.1-1.7,2-2.8,2.8
				H96c0.7-0.4,1.3-0.9,1.9-1.4c0.6-0.5,1.2-1.1,1.8-1.7c0.6-0.6,1.1-1.2,1.6-1.9c0.5-0.7,0.9-1.4,1.3-2.1c-0.5,0.3-1,0.6-1.5,0.8
				s-1.1,0.3-1.7,0.3c-1.3,0-2.5-0.2-3.6-0.7c-1.1-0.4-2-1.1-2.7-1.9s-1.3-1.7-1.7-2.8c-0.4-1.1-0.6-2.3-0.6-3.6
				c0-1.3,0.2-2.5,0.7-3.6c0.5-1.1,1.1-2.1,1.9-3c0.8-0.8,1.7-1.5,2.8-2c1.1-0.5,2.3-0.7,3.6-0.7c1.3,0,2.5,0.2,3.6,0.7s2.1,1.2,3,2
				c0.8,0.8,1.5,1.8,2,3S109,187.6,109,188.9z M104,188.9c0-0.6-0.1-1.2-0.3-1.7c-0.2-0.6-0.5-1-0.9-1.5c-0.4-0.4-0.8-0.8-1.4-1
				c-0.5-0.3-1.1-0.4-1.7-0.4c-0.6,0-1.2,0.1-1.7,0.4c-0.5,0.2-1,0.6-1.3,1c-0.4,0.4-0.7,0.9-0.9,1.5c-0.2,0.6-0.3,1.2-0.3,1.8
				c0,0.6,0.1,1.2,0.3,1.8c0.2,0.6,0.5,1,0.9,1.5c0.4,0.4,0.8,0.7,1.3,1s1.1,0.4,1.7,0.4c0.6,0,1.2-0.1,1.8-0.4s1-0.6,1.4-1
				s0.7-0.9,0.9-1.5C103.9,190.1,104,189.5,104,188.9z"/>
		</g>
	</g>
</g>
</svg>
